<?xml version="1.0" standalone="no"?>
<!DOCTYPE svg PUBLIC "-//W3C//DTD SVG 20010904//EN"
 "http://www.w3.org/TR/2001/REC-SVG-20010904/DTD/svg10.dtd">
<svg version="1.0" xmlns="http://www.w3.org/2000/svg"
 width="400.000000pt" height="400.000000pt" viewBox="0 0 400.000000 400.000000"
 preserveAspectRatio="xMidYMid meet">
<metadata>
Created by potrace 1.11, written by Peter Selinger 2001-2013
</metadata>
<g transform="translate(0.000000,400.000000) scale(0.100000,-0.100000)"
fill="#000000" stroke="none">
<path d="M0 2000 l0 -2000 2000 0 2000 0 0 2000 0 2000 -2000 0 -2000 0 0
-2000z m1585 1956 c-507 -106 -966 -420 -1258 -861 -124 -187 -239 -465 -287
-690 l-19 -90 0 833 -1 832 838 -1 837 0 -110 -23z m2394 -808 l0 -833 -20 90
c-47 223 -156 490 -275 673 -293 450 -756 771 -1269 878 l-110 23 838 0 837 1
-1 -832z m-1094 2 c3 -5 -1 -36 -10 -69 -8 -32 -15 -63 -15 -69 0 -5 40 -11
88 -14 160 -7 232 -65 232 -184 0 -130 -41 -268 -139 -469 -155 -315 -380
-585 -489 -585 -15 0 -22 -9 -27 -36 -13 -73 -106 -386 -146 -496 -86 -234
-164 -373 -272 -486 -130 -135 -320 -224 -387 -182 -19 12 -6 24 45 40 182 57
331 261 469 642 61 168 103 319 306 1103 203 782 206 792 228 804 22 13 109
14 117 1z m-1012 -89 c69 -33 91 -75 85 -159 -6 -76 -37 -159 -132 -357 -110
-230 -194 -355 -237 -355 -36 0 -31 29 15 98 54 81 112 205 149 317 61 183 48
294 -37 330 -113 48 -241 -174 -419 -721 -87 -268 -118 -407 -124 -564 -5 -99
-2 -138 11 -182 22 -78 70 -138 129 -162 43 -18 55 -19 127 -8 159 23 254 79
539 316 90 76 165 135 167 133 11 -10 -22 -84 -63 -139 -56 -76 -188 -208
-275 -273 -139 -105 -306 -162 -447 -152 -152 10 -245 69 -300 188 -138 295
10 990 303 1428 72 108 188 239 241 273 43 28 202 21 268 -11z m-1773 -1681
c139 -431 432 -810 822 -1064 183 -119 450 -228 673 -275 l90 -20 -832 0 -833
-1 1 833 0 832 20 -90 c10 -49 37 -146 59 -215z m3880 -530 l0 -830 -832 1
-833 0 90 20 c608 129 1126 533 1395 1091 68 140 130 322 157 456 10 51 19 92
21 92 1 0 2 -373 2 -830z"/>
<path d="M2854 2866 c-18 -8 -34 -18 -37 -23 -3 -5 -58 -211 -121 -458 -64
-248 -119 -458 -122 -467 -11 -37 23 -15 76 48 192 227 348 529 396 766 16 75
16 88 4 104 -35 42 -134 57 -196 30z"/>
</g>
</svg>
